<mxfile host="app.diagrams.net" modified="2023-09-24T00:42:38.485Z" agent="Mozilla/5.0 (Windows NT 10.0; Win64; x64; rv:109.0) Gecko/20100101 Firefox/117.0" etag="4jE_Kc7zFiqEx5TwDCZP" version="21.8.1" type="device" pages="2">
  <diagram name="DLR" id="-3pIZo4IKAFFIwm3GAfs">
    <mxGraphModel dx="989" dy="534" grid="1" gridSize="10" guides="1" tooltips="1" connect="1" arrows="1" fold="1" page="1" pageScale="1" pageWidth="850" pageHeight="1100" math="0" shadow="0">
      <root>
        <mxCell id="0" />
        <mxCell id="1" parent="0" />
        <mxCell id="LUPceLFS9rSaDmU1C5uC-3" value="&lt;u&gt;IdProducto&lt;/u&gt;" style="ellipse;whiteSpace=wrap;html=1;" parent="1" vertex="1">
          <mxGeometry x="1010" y="40" width="120" height="80" as="geometry" />
        </mxCell>
        <mxCell id="LUPceLFS9rSaDmU1C5uC-2" value="PRODUCTOS" style="rounded=0;whiteSpace=wrap;html=1;" parent="1" vertex="1">
          <mxGeometry x="1100" y="230" width="120" height="60" as="geometry" />
        </mxCell>
        <mxCell id="LUPceLFS9rSaDmU1C5uC-4" value="Nombre" style="ellipse;whiteSpace=wrap;html=1;fontStyle=0" parent="1" vertex="1">
          <mxGeometry x="885" y="110" width="120" height="80" as="geometry" />
        </mxCell>
        <mxCell id="LUPceLFS9rSaDmU1C5uC-7" value="PAIS" style="rounded=0;whiteSpace=wrap;html=1;" parent="1" vertex="1">
          <mxGeometry x="1540" y="230" width="120" height="60" as="geometry" />
        </mxCell>
        <mxCell id="LUPceLFS9rSaDmU1C5uC-8" value="CodPais" style="ellipse;whiteSpace=wrap;html=1;fontStyle=4" parent="1" vertex="1">
          <mxGeometry x="1720" y="220" width="120" height="80" as="geometry" />
        </mxCell>
        <mxCell id="LUPceLFS9rSaDmU1C5uC-10" value="Precio" style="ellipse;whiteSpace=wrap;html=1;fontStyle=0" parent="1" vertex="1">
          <mxGeometry x="1160" y="60" width="120" height="80" as="geometry" />
        </mxCell>
        <mxCell id="LUPceLFS9rSaDmU1C5uC-11" value="Stock" style="ellipse;whiteSpace=wrap;html=1;fontStyle=0" parent="1" vertex="1">
          <mxGeometry x="1280" y="110" width="120" height="80" as="geometry" />
        </mxCell>
        <mxCell id="LUPceLFS9rSaDmU1C5uC-12" value="CLIENTES" style="rounded=0;whiteSpace=wrap;html=1;" parent="1" vertex="1">
          <mxGeometry x="585" y="525" width="120" height="60" as="geometry" />
        </mxCell>
        <mxCell id="LUPceLFS9rSaDmU1C5uC-13" value="Dni" style="ellipse;whiteSpace=wrap;html=1;fontStyle=4" parent="1" vertex="1">
          <mxGeometry x="560" y="725" width="120" height="80" as="geometry" />
        </mxCell>
        <mxCell id="LUPceLFS9rSaDmU1C5uC-14" value="Nombre" style="ellipse;whiteSpace=wrap;html=1;fontStyle=0" parent="1" vertex="1">
          <mxGeometry x="690" y="705" width="120" height="80" as="geometry" />
        </mxCell>
        <mxCell id="LUPceLFS9rSaDmU1C5uC-15" value="Apellido" style="ellipse;whiteSpace=wrap;html=1;fontStyle=0" parent="1" vertex="1">
          <mxGeometry x="410" y="685" width="120" height="80" as="geometry" />
        </mxCell>
        <mxCell id="LUPceLFS9rSaDmU1C5uC-17" value="Mail" style="ellipse;whiteSpace=wrap;html=1;fontStyle=0" parent="1" vertex="1">
          <mxGeometry x="305" y="605" width="120" height="80" as="geometry" />
        </mxCell>
        <mxCell id="LUPceLFS9rSaDmU1C5uC-18" value="TELEFONOS" style="rounded=0;whiteSpace=wrap;html=1;" parent="1" vertex="1">
          <mxGeometry x="590" y="240" width="120" height="60" as="geometry" />
        </mxCell>
        <mxCell id="LUPceLFS9rSaDmU1C5uC-19" value="VENTAS" style="rounded=0;whiteSpace=wrap;html=1;" parent="1" vertex="1">
          <mxGeometry x="1100" y="520" width="120" height="60" as="geometry" />
        </mxCell>
        <mxCell id="LUPceLFS9rSaDmU1C5uC-22" value="&lt;u&gt;IdVenta&lt;/u&gt;" style="ellipse;whiteSpace=wrap;html=1;" parent="1" vertex="1">
          <mxGeometry x="1030" y="645" width="120" height="80" as="geometry" />
        </mxCell>
        <mxCell id="LUPceLFS9rSaDmU1C5uC-24" value="" style="endArrow=none;html=1;rounded=0;exitX=0;exitY=0;exitDx=0;exitDy=0;" parent="1" source="LUPceLFS9rSaDmU1C5uC-2" target="LUPceLFS9rSaDmU1C5uC-4" edge="1">
          <mxGeometry width="50" height="50" relative="1" as="geometry">
            <mxPoint x="1100" y="360" as="sourcePoint" />
            <mxPoint x="1150" y="310" as="targetPoint" />
          </mxGeometry>
        </mxCell>
        <mxCell id="LUPceLFS9rSaDmU1C5uC-25" value="" style="endArrow=none;html=1;rounded=0;" parent="1" source="LUPceLFS9rSaDmU1C5uC-2" target="LUPceLFS9rSaDmU1C5uC-3" edge="1">
          <mxGeometry width="50" height="50" relative="1" as="geometry">
            <mxPoint x="1090" y="320" as="sourcePoint" />
            <mxPoint x="1140" y="270" as="targetPoint" />
          </mxGeometry>
        </mxCell>
        <mxCell id="LUPceLFS9rSaDmU1C5uC-26" value="" style="endArrow=none;html=1;rounded=0;" parent="1" source="LUPceLFS9rSaDmU1C5uC-2" target="LUPceLFS9rSaDmU1C5uC-10" edge="1">
          <mxGeometry width="50" height="50" relative="1" as="geometry">
            <mxPoint x="1160" y="350" as="sourcePoint" />
            <mxPoint x="1210" y="300" as="targetPoint" />
          </mxGeometry>
        </mxCell>
        <mxCell id="LUPceLFS9rSaDmU1C5uC-27" value="" style="endArrow=none;html=1;rounded=0;" parent="1" source="LUPceLFS9rSaDmU1C5uC-2" target="LUPceLFS9rSaDmU1C5uC-11" edge="1">
          <mxGeometry width="50" height="50" relative="1" as="geometry">
            <mxPoint x="1270" y="380" as="sourcePoint" />
            <mxPoint x="1320" y="330" as="targetPoint" />
          </mxGeometry>
        </mxCell>
        <mxCell id="LUPceLFS9rSaDmU1C5uC-28" value="" style="endArrow=none;html=1;rounded=0;" parent="1" source="LUPceLFS9rSaDmU1C5uC-15" target="LUPceLFS9rSaDmU1C5uC-12" edge="1">
          <mxGeometry width="50" height="50" relative="1" as="geometry">
            <mxPoint x="510" y="690" as="sourcePoint" />
            <mxPoint x="560" y="640" as="targetPoint" />
          </mxGeometry>
        </mxCell>
        <mxCell id="LUPceLFS9rSaDmU1C5uC-29" value="" style="endArrow=none;html=1;rounded=0;" parent="1" source="LUPceLFS9rSaDmU1C5uC-13" target="LUPceLFS9rSaDmU1C5uC-12" edge="1">
          <mxGeometry width="50" height="50" relative="1" as="geometry">
            <mxPoint x="580" y="730" as="sourcePoint" />
            <mxPoint x="630" y="680" as="targetPoint" />
          </mxGeometry>
        </mxCell>
        <mxCell id="LUPceLFS9rSaDmU1C5uC-30" value="" style="endArrow=none;html=1;rounded=0;" parent="1" source="LUPceLFS9rSaDmU1C5uC-14" target="LUPceLFS9rSaDmU1C5uC-12" edge="1">
          <mxGeometry width="50" height="50" relative="1" as="geometry">
            <mxPoint x="670" y="710" as="sourcePoint" />
            <mxPoint x="720" y="660" as="targetPoint" />
          </mxGeometry>
        </mxCell>
        <mxCell id="LUPceLFS9rSaDmU1C5uC-31" value="" style="endArrow=none;html=1;rounded=0;" parent="1" source="jCgm1iMbB_DwVY6e2lo--1" target="LUPceLFS9rSaDmU1C5uC-12" edge="1">
          <mxGeometry width="50" height="50" relative="1" as="geometry">
            <mxPoint x="855.4125888249159" y="679.571810274716" as="sourcePoint" />
            <mxPoint x="800" y="630" as="targetPoint" />
          </mxGeometry>
        </mxCell>
        <mxCell id="LUPceLFS9rSaDmU1C5uC-32" value="" style="endArrow=none;html=1;rounded=0;" parent="1" source="LUPceLFS9rSaDmU1C5uC-12" target="LUPceLFS9rSaDmU1C5uC-17" edge="1">
          <mxGeometry width="50" height="50" relative="1" as="geometry">
            <mxPoint x="780" y="610" as="sourcePoint" />
            <mxPoint x="830" y="560" as="targetPoint" />
          </mxGeometry>
        </mxCell>
        <mxCell id="LUPceLFS9rSaDmU1C5uC-33" value="" style="endArrow=none;html=1;rounded=0;" parent="1" source="LUPceLFS9rSaDmU1C5uC-22" target="LUPceLFS9rSaDmU1C5uC-19" edge="1">
          <mxGeometry width="50" height="50" relative="1" as="geometry">
            <mxPoint x="1090" y="660" as="sourcePoint" />
            <mxPoint x="1140" y="610" as="targetPoint" />
          </mxGeometry>
        </mxCell>
        <mxCell id="LUPceLFS9rSaDmU1C5uC-35" value="" style="endArrow=none;html=1;rounded=0;" parent="1" source="LUPceLFS9rSaDmU1C5uC-19" edge="1">
          <mxGeometry width="50" height="50" relative="1" as="geometry">
            <mxPoint x="1170" y="660" as="sourcePoint" />
            <mxPoint x="1280" y="550" as="targetPoint" />
          </mxGeometry>
        </mxCell>
        <mxCell id="LUPceLFS9rSaDmU1C5uC-39" value="1" style="edgeLabel;html=1;align=center;verticalAlign=middle;resizable=0;points=[];" parent="LUPceLFS9rSaDmU1C5uC-35" vertex="1" connectable="0">
          <mxGeometry x="0.0556" y="-3" relative="1" as="geometry">
            <mxPoint as="offset" />
          </mxGeometry>
        </mxCell>
        <mxCell id="LUPceLFS9rSaDmU1C5uC-36" value="" style="endArrow=none;html=1;rounded=0;" parent="1" source="jCgm1iMbB_DwVY6e2lo--5" target="jCgm1iMbB_DwVY6e2lo--4" edge="1">
          <mxGeometry width="50" height="50" relative="1" as="geometry">
            <mxPoint x="1397.391304347826" y="551.304347826087" as="sourcePoint" />
            <mxPoint x="1490" y="550" as="targetPoint" />
          </mxGeometry>
        </mxCell>
        <mxCell id="LUPceLFS9rSaDmU1C5uC-40" value="1" style="edgeLabel;html=1;align=center;verticalAlign=middle;resizable=0;points=[];" parent="LUPceLFS9rSaDmU1C5uC-36" vertex="1" connectable="0">
          <mxGeometry x="-0.3889" y="-2" relative="1" as="geometry">
            <mxPoint as="offset" />
          </mxGeometry>
        </mxCell>
        <mxCell id="LUPceLFS9rSaDmU1C5uC-37" value="" style="endArrow=none;html=1;rounded=0;" parent="1" source="LUPceLFS9rSaDmU1C5uC-38" target="jCgm1iMbB_DwVY6e2lo--4" edge="1">
          <mxGeometry width="50" height="50" relative="1" as="geometry">
            <mxPoint x="1552.7244596551186" y="650.0412583915931" as="sourcePoint" />
            <mxPoint x="1630.0000000000005" y="551.8918918918919" as="targetPoint" />
          </mxGeometry>
        </mxCell>
        <mxCell id="LUPceLFS9rSaDmU1C5uC-38" value="&lt;u&gt;IdDetalle&lt;/u&gt;" style="ellipse;whiteSpace=wrap;html=1;align=center;" parent="1" vertex="1">
          <mxGeometry x="1690" y="530" width="110" height="50" as="geometry" />
        </mxCell>
        <mxCell id="LUPceLFS9rSaDmU1C5uC-42" value="tiene" style="shape=rhombus;perimeter=rhombusPerimeter;whiteSpace=wrap;html=1;align=center;" parent="1" vertex="1">
          <mxGeometry x="850" y="520" width="120" height="60" as="geometry" />
        </mxCell>
        <mxCell id="LUPceLFS9rSaDmU1C5uC-43" value="" style="endArrow=none;html=1;rounded=0;" parent="1" source="LUPceLFS9rSaDmU1C5uC-42" target="LUPceLFS9rSaDmU1C5uC-19" edge="1">
          <mxGeometry width="50" height="50" relative="1" as="geometry">
            <mxPoint x="1020" y="590" as="sourcePoint" />
            <mxPoint x="1070" y="540" as="targetPoint" />
          </mxGeometry>
        </mxCell>
        <mxCell id="LUPceLFS9rSaDmU1C5uC-47" value="1" style="edgeLabel;html=1;align=center;verticalAlign=middle;resizable=0;points=[];" parent="LUPceLFS9rSaDmU1C5uC-43" vertex="1" connectable="0">
          <mxGeometry x="0.1538" y="3" relative="1" as="geometry">
            <mxPoint as="offset" />
          </mxGeometry>
        </mxCell>
        <mxCell id="LUPceLFS9rSaDmU1C5uC-45" value="" style="endArrow=none;html=1;rounded=0;" parent="1" source="LUPceLFS9rSaDmU1C5uC-12" target="LUPceLFS9rSaDmU1C5uC-42" edge="1">
          <mxGeometry width="50" height="50" relative="1" as="geometry">
            <mxPoint x="760" y="600" as="sourcePoint" />
            <mxPoint x="810" y="550" as="targetPoint" />
          </mxGeometry>
        </mxCell>
        <mxCell id="LUPceLFS9rSaDmU1C5uC-46" value="1" style="edgeLabel;html=1;align=center;verticalAlign=middle;resizable=0;points=[];" parent="LUPceLFS9rSaDmU1C5uC-45" vertex="1" connectable="0">
          <mxGeometry x="-0.1054" relative="1" as="geometry">
            <mxPoint as="offset" />
          </mxGeometry>
        </mxCell>
        <mxCell id="LUPceLFS9rSaDmU1C5uC-48" value="tiene" style="shape=rhombus;perimeter=rhombusPerimeter;whiteSpace=wrap;html=1;align=center;" parent="1" vertex="1">
          <mxGeometry x="1300" y="350" width="120" height="60" as="geometry" />
        </mxCell>
        <mxCell id="LUPceLFS9rSaDmU1C5uC-49" value="1" style="endArrow=none;html=1;rounded=0;" parent="1" source="jCgm1iMbB_DwVY6e2lo--4" target="LUPceLFS9rSaDmU1C5uC-48" edge="1">
          <mxGeometry width="50" height="50" relative="1" as="geometry">
            <mxPoint x="1525" y="520" as="sourcePoint" />
            <mxPoint x="1160" y="470" as="targetPoint" />
          </mxGeometry>
        </mxCell>
        <mxCell id="LUPceLFS9rSaDmU1C5uC-50" value="M" style="endArrow=none;html=1;rounded=0;" parent="1" source="LUPceLFS9rSaDmU1C5uC-48" target="LUPceLFS9rSaDmU1C5uC-2" edge="1">
          <mxGeometry width="50" height="50" relative="1" as="geometry">
            <mxPoint x="850" y="410" as="sourcePoint" />
            <mxPoint x="900" y="360" as="targetPoint" />
          </mxGeometry>
        </mxCell>
        <mxCell id="LUPceLFS9rSaDmU1C5uC-51" value="" style="endArrow=none;html=1;rounded=0;" parent="1" source="LUPceLFS9rSaDmU1C5uC-7" target="LUPceLFS9rSaDmU1C5uC-8" edge="1">
          <mxGeometry width="50" height="50" relative="1" as="geometry">
            <mxPoint x="1510" y="340" as="sourcePoint" />
            <mxPoint x="1560" y="290" as="targetPoint" />
          </mxGeometry>
        </mxCell>
        <mxCell id="LUPceLFS9rSaDmU1C5uC-52" value="tiene" style="shape=rhombus;perimeter=rhombusPerimeter;whiteSpace=wrap;html=1;align=center;" parent="1" vertex="1">
          <mxGeometry x="1330" y="230" width="120" height="60" as="geometry" />
        </mxCell>
        <mxCell id="LUPceLFS9rSaDmU1C5uC-53" value="M" style="endArrow=none;html=1;rounded=0;" parent="1" source="LUPceLFS9rSaDmU1C5uC-2" target="LUPceLFS9rSaDmU1C5uC-52" edge="1">
          <mxGeometry width="50" height="50" relative="1" as="geometry">
            <mxPoint x="1300" y="380" as="sourcePoint" />
            <mxPoint x="1350" y="330" as="targetPoint" />
          </mxGeometry>
        </mxCell>
        <mxCell id="LUPceLFS9rSaDmU1C5uC-54" value="1" style="endArrow=none;html=1;rounded=0;" parent="1" source="LUPceLFS9rSaDmU1C5uC-52" target="LUPceLFS9rSaDmU1C5uC-7" edge="1">
          <mxGeometry width="50" height="50" relative="1" as="geometry">
            <mxPoint x="1440" y="400" as="sourcePoint" />
            <mxPoint x="1490" y="350" as="targetPoint" />
          </mxGeometry>
        </mxCell>
        <mxCell id="LUPceLFS9rSaDmU1C5uC-56" value="&lt;div&gt;&lt;u&gt;CodArea&lt;/u&gt;&lt;/div&gt;" style="ellipse;whiteSpace=wrap;html=1;fontStyle=0" parent="1" vertex="1">
          <mxGeometry x="490" y="100" width="120" height="80" as="geometry" />
        </mxCell>
        <mxCell id="LUPceLFS9rSaDmU1C5uC-57" value="&lt;u&gt;Numero&lt;/u&gt;" style="ellipse;whiteSpace=wrap;html=1;fontStyle=0" parent="1" vertex="1">
          <mxGeometry x="700" y="100" width="120" height="80" as="geometry" />
        </mxCell>
        <mxCell id="LUPceLFS9rSaDmU1C5uC-58" value="" style="endArrow=none;html=1;rounded=0;" parent="1" source="LUPceLFS9rSaDmU1C5uC-18" target="LUPceLFS9rSaDmU1C5uC-56" edge="1">
          <mxGeometry width="50" height="50" relative="1" as="geometry">
            <mxPoint x="480" y="380" as="sourcePoint" />
            <mxPoint x="530" y="330" as="targetPoint" />
          </mxGeometry>
        </mxCell>
        <mxCell id="LUPceLFS9rSaDmU1C5uC-59" value="" style="endArrow=none;html=1;rounded=0;" parent="1" source="LUPceLFS9rSaDmU1C5uC-18" target="LUPceLFS9rSaDmU1C5uC-57" edge="1">
          <mxGeometry width="50" height="50" relative="1" as="geometry">
            <mxPoint x="660" y="290" as="sourcePoint" />
            <mxPoint x="710" y="240" as="targetPoint" />
          </mxGeometry>
        </mxCell>
        <mxCell id="LUPceLFS9rSaDmU1C5uC-60" value="M" style="endArrow=none;html=1;rounded=0;" parent="1" source="LUPceLFS9rSaDmU1C5uC-61" target="LUPceLFS9rSaDmU1C5uC-18" edge="1">
          <mxGeometry width="50" height="50" relative="1" as="geometry">
            <mxPoint x="615" y="370" as="sourcePoint" />
            <mxPoint x="665" y="320" as="targetPoint" />
          </mxGeometry>
        </mxCell>
        <mxCell id="LUPceLFS9rSaDmU1C5uC-61" value="pueden tener" style="shape=rhombus;perimeter=rhombusPerimeter;whiteSpace=wrap;html=1;align=center;" parent="1" vertex="1">
          <mxGeometry x="585" y="390" width="120" height="60" as="geometry" />
        </mxCell>
        <mxCell id="LUPceLFS9rSaDmU1C5uC-62" value="" style="endArrow=none;html=1;rounded=0;" parent="1" source="LUPceLFS9rSaDmU1C5uC-12" target="LUPceLFS9rSaDmU1C5uC-61" edge="1">
          <mxGeometry width="50" height="50" relative="1" as="geometry">
            <mxPoint x="470" y="450" as="sourcePoint" />
            <mxPoint x="520" y="400" as="targetPoint" />
          </mxGeometry>
        </mxCell>
        <mxCell id="LUPceLFS9rSaDmU1C5uC-63" value="1" style="edgeLabel;html=1;align=center;verticalAlign=middle;resizable=0;points=[];" parent="LUPceLFS9rSaDmU1C5uC-62" vertex="1" connectable="0">
          <mxGeometry x="-0.0293" relative="1" as="geometry">
            <mxPoint as="offset" />
          </mxGeometry>
        </mxCell>
        <mxCell id="LUPceLFS9rSaDmU1C5uC-64" value="Nombre" style="ellipse;whiteSpace=wrap;html=1;fontStyle=0" parent="1" vertex="1">
          <mxGeometry x="1710" y="310" width="120" height="80" as="geometry" />
        </mxCell>
        <mxCell id="LUPceLFS9rSaDmU1C5uC-65" value="" style="endArrow=none;html=1;rounded=0;" parent="1" source="LUPceLFS9rSaDmU1C5uC-7" target="LUPceLFS9rSaDmU1C5uC-64" edge="1">
          <mxGeometry width="50" height="50" relative="1" as="geometry">
            <mxPoint x="1630" y="400" as="sourcePoint" />
            <mxPoint x="1680" y="350" as="targetPoint" />
          </mxGeometry>
        </mxCell>
        <mxCell id="jCgm1iMbB_DwVY6e2lo--1" value="FechaNacimiento" style="ellipse;whiteSpace=wrap;html=1;" parent="1" vertex="1">
          <mxGeometry x="830" y="670" width="120" height="80" as="geometry" />
        </mxCell>
        <mxCell id="jCgm1iMbB_DwVY6e2lo--2" value="Fecha" style="ellipse;whiteSpace=wrap;html=1;" parent="1" vertex="1">
          <mxGeometry x="1160" y="650" width="120" height="80" as="geometry" />
        </mxCell>
        <mxCell id="jCgm1iMbB_DwVY6e2lo--3" value="" style="endArrow=none;html=1;rounded=0;" parent="1" source="jCgm1iMbB_DwVY6e2lo--2" target="LUPceLFS9rSaDmU1C5uC-19" edge="1">
          <mxGeometry width="50" height="50" relative="1" as="geometry">
            <mxPoint x="1120" y="657" as="sourcePoint" />
            <mxPoint x="1154" y="590" as="targetPoint" />
          </mxGeometry>
        </mxCell>
        <mxCell id="jCgm1iMbB_DwVY6e2lo--4" value="DETALLES VENTAS" style="rounded=1;arcSize=10;whiteSpace=wrap;html=1;align=center;" parent="1" vertex="1">
          <mxGeometry x="1500" y="535" width="120" height="40" as="geometry" />
        </mxCell>
        <mxCell id="jCgm1iMbB_DwVY6e2lo--5" value="tiene" style="shape=rhombus;perimeter=rhombusPerimeter;whiteSpace=wrap;html=1;align=center;" parent="1" vertex="1">
          <mxGeometry x="1280" y="520" width="120" height="60" as="geometry" />
        </mxCell>
        <mxCell id="jCgm1iMbB_DwVY6e2lo--7" value="IdVenta" style="ellipse;whiteSpace=wrap;html=1;align=center;" parent="1" vertex="1">
          <mxGeometry x="1650" y="595" width="110" height="50" as="geometry" />
        </mxCell>
        <mxCell id="jCgm1iMbB_DwVY6e2lo--9" value="" style="endArrow=none;html=1;rounded=0;" parent="1" source="jCgm1iMbB_DwVY6e2lo--7" target="jCgm1iMbB_DwVY6e2lo--4" edge="1">
          <mxGeometry width="50" height="50" relative="1" as="geometry">
            <mxPoint x="1635" y="614.39" as="sourcePoint" />
            <mxPoint x="1565" y="614.39" as="targetPoint" />
            <Array as="points" />
          </mxGeometry>
        </mxCell>
        <mxCell id="jCgm1iMbB_DwVY6e2lo--10" value="IdProducto" style="ellipse;whiteSpace=wrap;html=1;" parent="1" vertex="1">
          <mxGeometry x="1660" y="420" width="120" height="80" as="geometry" />
        </mxCell>
        <mxCell id="jCgm1iMbB_DwVY6e2lo--11" value="" style="endArrow=none;html=1;rounded=0;" parent="1" source="jCgm1iMbB_DwVY6e2lo--4" target="jCgm1iMbB_DwVY6e2lo--10" edge="1">
          <mxGeometry width="50" height="50" relative="1" as="geometry">
            <mxPoint x="1550" y="520" as="sourcePoint" />
            <mxPoint x="1600" y="470" as="targetPoint" />
          </mxGeometry>
        </mxCell>
        <mxCell id="jCgm1iMbB_DwVY6e2lo--12" value="Cantidad" style="ellipse;whiteSpace=wrap;html=1;align=center;" parent="1" vertex="1">
          <mxGeometry x="1540" y="635" width="110" height="50" as="geometry" />
        </mxCell>
        <mxCell id="jCgm1iMbB_DwVY6e2lo--13" value="" style="endArrow=none;html=1;rounded=0;" parent="1" source="jCgm1iMbB_DwVY6e2lo--12" target="jCgm1iMbB_DwVY6e2lo--4" edge="1">
          <mxGeometry width="50" height="50" relative="1" as="geometry">
            <mxPoint x="1470" y="670" as="sourcePoint" />
            <mxPoint x="1570" y="580" as="targetPoint" />
          </mxGeometry>
        </mxCell>
        <mxCell id="jCgm1iMbB_DwVY6e2lo--15" value="Precio" style="ellipse;whiteSpace=wrap;html=1;align=center;" parent="1" vertex="1">
          <mxGeometry x="1530" y="440" width="100" height="40" as="geometry" />
        </mxCell>
        <mxCell id="jCgm1iMbB_DwVY6e2lo--16" value="" style="endArrow=none;html=1;rounded=0;" parent="1" source="jCgm1iMbB_DwVY6e2lo--4" target="jCgm1iMbB_DwVY6e2lo--15" edge="1">
          <mxGeometry width="50" height="50" relative="1" as="geometry">
            <mxPoint x="1550" y="550" as="sourcePoint" />
            <mxPoint x="1600" y="500" as="targetPoint" />
          </mxGeometry>
        </mxCell>
        <mxCell id="vmSyAcerJoAeIMv2DMXh-1" value="Dni" style="ellipse;whiteSpace=wrap;html=1;align=center;fontStyle=4" vertex="1" parent="1">
          <mxGeometry x="340" y="180" width="100" height="40" as="geometry" />
        </mxCell>
        <mxCell id="vmSyAcerJoAeIMv2DMXh-2" value="" style="endArrow=none;html=1;rounded=0;" edge="1" parent="1" source="vmSyAcerJoAeIMv2DMXh-1" target="LUPceLFS9rSaDmU1C5uC-18">
          <mxGeometry width="50" height="50" relative="1" as="geometry">
            <mxPoint x="430" y="340" as="sourcePoint" />
            <mxPoint x="480" y="290" as="targetPoint" />
          </mxGeometry>
        </mxCell>
      </root>
    </mxGraphModel>
  </diagram>
  <diagram id="wPTVxbBE_-UjcZnFNz3Y" name="DER">
    <mxGraphModel dx="2045" dy="645" grid="1" gridSize="10" guides="1" tooltips="1" connect="1" arrows="1" fold="1" page="1" pageScale="1" pageWidth="850" pageHeight="1100" math="0" shadow="0">
      <root>
        <mxCell id="0" />
        <mxCell id="1" parent="0" />
        <mxCell id="5Py8hqtLyM9Ob009en_i-14" value="Productos" style="shape=table;startSize=30;container=1;collapsible=1;childLayout=tableLayout;fixedRows=1;rowLines=0;fontStyle=1;align=center;resizeLast=1;html=1;" parent="1" vertex="1">
          <mxGeometry x="270" y="180" width="200" height="180" as="geometry" />
        </mxCell>
        <mxCell id="5Py8hqtLyM9Ob009en_i-15" value="" style="shape=tableRow;horizontal=0;startSize=0;swimlaneHead=0;swimlaneBody=0;fillColor=none;collapsible=0;dropTarget=0;points=[[0,0.5],[1,0.5]];portConstraint=eastwest;top=0;left=0;right=0;bottom=1;" parent="5Py8hqtLyM9Ob009en_i-14" vertex="1">
          <mxGeometry y="30" width="200" height="30" as="geometry" />
        </mxCell>
        <mxCell id="5Py8hqtLyM9Ob009en_i-16" value="PK" style="shape=partialRectangle;connectable=0;fillColor=none;top=0;left=0;bottom=0;right=0;fontStyle=1;overflow=hidden;whiteSpace=wrap;html=1;" parent="5Py8hqtLyM9Ob009en_i-15" vertex="1">
          <mxGeometry width="50" height="30" as="geometry">
            <mxRectangle width="50" height="30" as="alternateBounds" />
          </mxGeometry>
        </mxCell>
        <mxCell id="5Py8hqtLyM9Ob009en_i-17" value="IdProdcutos" style="shape=partialRectangle;connectable=0;fillColor=none;top=0;left=0;bottom=0;right=0;align=left;spacingLeft=6;fontStyle=5;overflow=hidden;whiteSpace=wrap;html=1;" parent="5Py8hqtLyM9Ob009en_i-15" vertex="1">
          <mxGeometry x="50" width="150" height="30" as="geometry">
            <mxRectangle width="150" height="30" as="alternateBounds" />
          </mxGeometry>
        </mxCell>
        <mxCell id="5Py8hqtLyM9Ob009en_i-18" value="" style="shape=tableRow;horizontal=0;startSize=0;swimlaneHead=0;swimlaneBody=0;fillColor=none;collapsible=0;dropTarget=0;points=[[0,0.5],[1,0.5]];portConstraint=eastwest;top=0;left=0;right=0;bottom=0;" parent="5Py8hqtLyM9Ob009en_i-14" vertex="1">
          <mxGeometry y="60" width="200" height="30" as="geometry" />
        </mxCell>
        <mxCell id="5Py8hqtLyM9Ob009en_i-19" value="" style="shape=partialRectangle;connectable=0;fillColor=none;top=0;left=0;bottom=0;right=0;editable=1;overflow=hidden;whiteSpace=wrap;html=1;" parent="5Py8hqtLyM9Ob009en_i-18" vertex="1">
          <mxGeometry width="50" height="30" as="geometry">
            <mxRectangle width="50" height="30" as="alternateBounds" />
          </mxGeometry>
        </mxCell>
        <mxCell id="5Py8hqtLyM9Ob009en_i-20" value="&lt;div&gt;Nombre&lt;/div&gt;" style="shape=partialRectangle;connectable=0;fillColor=none;top=0;left=0;bottom=0;right=0;align=left;spacingLeft=6;overflow=hidden;whiteSpace=wrap;html=1;" parent="5Py8hqtLyM9Ob009en_i-18" vertex="1">
          <mxGeometry x="50" width="150" height="30" as="geometry">
            <mxRectangle width="150" height="30" as="alternateBounds" />
          </mxGeometry>
        </mxCell>
        <mxCell id="5Py8hqtLyM9Ob009en_i-21" value="" style="shape=tableRow;horizontal=0;startSize=0;swimlaneHead=0;swimlaneBody=0;fillColor=none;collapsible=0;dropTarget=0;points=[[0,0.5],[1,0.5]];portConstraint=eastwest;top=0;left=0;right=0;bottom=0;" parent="5Py8hqtLyM9Ob009en_i-14" vertex="1">
          <mxGeometry y="90" width="200" height="30" as="geometry" />
        </mxCell>
        <mxCell id="5Py8hqtLyM9Ob009en_i-22" value="" style="shape=partialRectangle;connectable=0;fillColor=none;top=0;left=0;bottom=0;right=0;editable=1;overflow=hidden;whiteSpace=wrap;html=1;" parent="5Py8hqtLyM9Ob009en_i-21" vertex="1">
          <mxGeometry width="50" height="30" as="geometry">
            <mxRectangle width="50" height="30" as="alternateBounds" />
          </mxGeometry>
        </mxCell>
        <mxCell id="5Py8hqtLyM9Ob009en_i-23" value="Precio" style="shape=partialRectangle;connectable=0;fillColor=none;top=0;left=0;bottom=0;right=0;align=left;spacingLeft=6;overflow=hidden;whiteSpace=wrap;html=1;" parent="5Py8hqtLyM9Ob009en_i-21" vertex="1">
          <mxGeometry x="50" width="150" height="30" as="geometry">
            <mxRectangle width="150" height="30" as="alternateBounds" />
          </mxGeometry>
        </mxCell>
        <mxCell id="5Py8hqtLyM9Ob009en_i-24" value="" style="shape=tableRow;horizontal=0;startSize=0;swimlaneHead=0;swimlaneBody=0;fillColor=none;collapsible=0;dropTarget=0;points=[[0,0.5],[1,0.5]];portConstraint=eastwest;top=0;left=0;right=0;bottom=0;" parent="5Py8hqtLyM9Ob009en_i-14" vertex="1">
          <mxGeometry y="120" width="200" height="30" as="geometry" />
        </mxCell>
        <mxCell id="5Py8hqtLyM9Ob009en_i-25" value="" style="shape=partialRectangle;connectable=0;fillColor=none;top=0;left=0;bottom=0;right=0;editable=1;overflow=hidden;whiteSpace=wrap;html=1;" parent="5Py8hqtLyM9Ob009en_i-24" vertex="1">
          <mxGeometry width="50" height="30" as="geometry">
            <mxRectangle width="50" height="30" as="alternateBounds" />
          </mxGeometry>
        </mxCell>
        <mxCell id="5Py8hqtLyM9Ob009en_i-26" value="Stock" style="shape=partialRectangle;connectable=0;fillColor=none;top=0;left=0;bottom=0;right=0;align=left;spacingLeft=6;overflow=hidden;whiteSpace=wrap;html=1;" parent="5Py8hqtLyM9Ob009en_i-24" vertex="1">
          <mxGeometry x="50" width="150" height="30" as="geometry">
            <mxRectangle width="150" height="30" as="alternateBounds" />
          </mxGeometry>
        </mxCell>
        <mxCell id="5Py8hqtLyM9Ob009en_i-66" value="" style="shape=tableRow;horizontal=0;startSize=0;swimlaneHead=0;swimlaneBody=0;fillColor=none;collapsible=0;dropTarget=0;points=[[0,0.5],[1,0.5]];portConstraint=eastwest;top=0;left=0;right=0;bottom=1;" parent="5Py8hqtLyM9Ob009en_i-14" vertex="1">
          <mxGeometry y="150" width="200" height="30" as="geometry" />
        </mxCell>
        <mxCell id="5Py8hqtLyM9Ob009en_i-67" value="PK, FK3" style="shape=partialRectangle;connectable=0;fillColor=none;top=0;left=0;bottom=0;right=0;fontStyle=1;overflow=hidden;whiteSpace=wrap;html=1;" parent="5Py8hqtLyM9Ob009en_i-66" vertex="1">
          <mxGeometry width="50" height="30" as="geometry">
            <mxRectangle width="50" height="30" as="alternateBounds" />
          </mxGeometry>
        </mxCell>
        <mxCell id="5Py8hqtLyM9Ob009en_i-68" value="CodPais" style="shape=partialRectangle;connectable=0;fillColor=none;top=0;left=0;bottom=0;right=0;align=left;spacingLeft=6;fontStyle=5;overflow=hidden;whiteSpace=wrap;html=1;" parent="5Py8hqtLyM9Ob009en_i-66" vertex="1">
          <mxGeometry x="50" width="150" height="30" as="geometry">
            <mxRectangle width="150" height="30" as="alternateBounds" />
          </mxGeometry>
        </mxCell>
        <mxCell id="5Py8hqtLyM9Ob009en_i-27" value="Clientes" style="shape=table;startSize=30;container=1;collapsible=1;childLayout=tableLayout;fixedRows=1;rowLines=0;fontStyle=1;align=center;resizeLast=1;html=1;" parent="1" vertex="1">
          <mxGeometry y="430" width="190" height="230" as="geometry" />
        </mxCell>
        <mxCell id="5Py8hqtLyM9Ob009en_i-28" value="" style="shape=tableRow;horizontal=0;startSize=0;swimlaneHead=0;swimlaneBody=0;fillColor=none;collapsible=0;dropTarget=0;points=[[0,0.5],[1,0.5]];portConstraint=eastwest;top=0;left=0;right=0;bottom=1;" parent="5Py8hqtLyM9Ob009en_i-27" vertex="1">
          <mxGeometry y="30" width="190" height="20" as="geometry" />
        </mxCell>
        <mxCell id="5Py8hqtLyM9Ob009en_i-29" value="PK" style="shape=partialRectangle;connectable=0;fillColor=none;top=0;left=0;bottom=0;right=0;fontStyle=1;overflow=hidden;whiteSpace=wrap;html=1;" parent="5Py8hqtLyM9Ob009en_i-28" vertex="1">
          <mxGeometry width="50" height="20" as="geometry">
            <mxRectangle width="50" height="20" as="alternateBounds" />
          </mxGeometry>
        </mxCell>
        <mxCell id="5Py8hqtLyM9Ob009en_i-30" value="Dni" style="shape=partialRectangle;connectable=0;fillColor=none;top=0;left=0;bottom=0;right=0;align=left;spacingLeft=6;fontStyle=5;overflow=hidden;whiteSpace=wrap;html=1;" parent="5Py8hqtLyM9Ob009en_i-28" vertex="1">
          <mxGeometry x="50" width="140" height="20" as="geometry">
            <mxRectangle width="140" height="20" as="alternateBounds" />
          </mxGeometry>
        </mxCell>
        <mxCell id="5Py8hqtLyM9Ob009en_i-31" value="" style="shape=tableRow;horizontal=0;startSize=0;swimlaneHead=0;swimlaneBody=0;fillColor=none;collapsible=0;dropTarget=0;points=[[0,0.5],[1,0.5]];portConstraint=eastwest;top=0;left=0;right=0;bottom=0;" parent="5Py8hqtLyM9Ob009en_i-27" vertex="1">
          <mxGeometry y="50" width="190" height="30" as="geometry" />
        </mxCell>
        <mxCell id="5Py8hqtLyM9Ob009en_i-32" value="" style="shape=partialRectangle;connectable=0;fillColor=none;top=0;left=0;bottom=0;right=0;editable=1;overflow=hidden;whiteSpace=wrap;html=1;" parent="5Py8hqtLyM9Ob009en_i-31" vertex="1">
          <mxGeometry width="50" height="30" as="geometry">
            <mxRectangle width="50" height="30" as="alternateBounds" />
          </mxGeometry>
        </mxCell>
        <mxCell id="5Py8hqtLyM9Ob009en_i-33" value="&lt;div&gt;Nombre&lt;/div&gt;" style="shape=partialRectangle;connectable=0;fillColor=none;top=0;left=0;bottom=0;right=0;align=left;spacingLeft=6;overflow=hidden;whiteSpace=wrap;html=1;" parent="5Py8hqtLyM9Ob009en_i-31" vertex="1">
          <mxGeometry x="50" width="140" height="30" as="geometry">
            <mxRectangle width="140" height="30" as="alternateBounds" />
          </mxGeometry>
        </mxCell>
        <mxCell id="5Py8hqtLyM9Ob009en_i-34" value="" style="shape=tableRow;horizontal=0;startSize=0;swimlaneHead=0;swimlaneBody=0;fillColor=none;collapsible=0;dropTarget=0;points=[[0,0.5],[1,0.5]];portConstraint=eastwest;top=0;left=0;right=0;bottom=0;" parent="5Py8hqtLyM9Ob009en_i-27" vertex="1">
          <mxGeometry y="80" width="190" height="30" as="geometry" />
        </mxCell>
        <mxCell id="5Py8hqtLyM9Ob009en_i-35" value="" style="shape=partialRectangle;connectable=0;fillColor=none;top=0;left=0;bottom=0;right=0;editable=1;overflow=hidden;whiteSpace=wrap;html=1;" parent="5Py8hqtLyM9Ob009en_i-34" vertex="1">
          <mxGeometry width="50" height="30" as="geometry">
            <mxRectangle width="50" height="30" as="alternateBounds" />
          </mxGeometry>
        </mxCell>
        <mxCell id="5Py8hqtLyM9Ob009en_i-36" value="Apellido" style="shape=partialRectangle;connectable=0;fillColor=none;top=0;left=0;bottom=0;right=0;align=left;spacingLeft=6;overflow=hidden;whiteSpace=wrap;html=1;" parent="5Py8hqtLyM9Ob009en_i-34" vertex="1">
          <mxGeometry x="50" width="140" height="30" as="geometry">
            <mxRectangle width="140" height="30" as="alternateBounds" />
          </mxGeometry>
        </mxCell>
        <mxCell id="5Py8hqtLyM9Ob009en_i-37" value="" style="shape=tableRow;horizontal=0;startSize=0;swimlaneHead=0;swimlaneBody=0;fillColor=none;collapsible=0;dropTarget=0;points=[[0,0.5],[1,0.5]];portConstraint=eastwest;top=0;left=0;right=0;bottom=0;" parent="5Py8hqtLyM9Ob009en_i-27" vertex="1">
          <mxGeometry y="110" width="190" height="30" as="geometry" />
        </mxCell>
        <mxCell id="5Py8hqtLyM9Ob009en_i-38" value="" style="shape=partialRectangle;connectable=0;fillColor=none;top=0;left=0;bottom=0;right=0;editable=1;overflow=hidden;whiteSpace=wrap;html=1;" parent="5Py8hqtLyM9Ob009en_i-37" vertex="1">
          <mxGeometry width="50" height="30" as="geometry">
            <mxRectangle width="50" height="30" as="alternateBounds" />
          </mxGeometry>
        </mxCell>
        <mxCell id="5Py8hqtLyM9Ob009en_i-39" value="FechaNacimiento" style="shape=partialRectangle;connectable=0;fillColor=none;top=0;left=0;bottom=0;right=0;align=left;spacingLeft=6;overflow=hidden;whiteSpace=wrap;html=1;" parent="5Py8hqtLyM9Ob009en_i-37" vertex="1">
          <mxGeometry x="50" width="140" height="30" as="geometry">
            <mxRectangle width="140" height="30" as="alternateBounds" />
          </mxGeometry>
        </mxCell>
        <mxCell id="5Py8hqtLyM9Ob009en_i-40" value="" style="shape=tableRow;horizontal=0;startSize=0;swimlaneHead=0;swimlaneBody=0;fillColor=none;collapsible=0;dropTarget=0;points=[[0,0.5],[1,0.5]];portConstraint=eastwest;top=0;left=0;right=0;bottom=0;" parent="5Py8hqtLyM9Ob009en_i-27" vertex="1">
          <mxGeometry y="140" width="190" height="30" as="geometry" />
        </mxCell>
        <mxCell id="5Py8hqtLyM9Ob009en_i-41" value="" style="shape=partialRectangle;connectable=0;fillColor=none;top=0;left=0;bottom=0;right=0;editable=1;overflow=hidden;whiteSpace=wrap;html=1;" parent="5Py8hqtLyM9Ob009en_i-40" vertex="1">
          <mxGeometry width="50" height="30" as="geometry">
            <mxRectangle width="50" height="30" as="alternateBounds" />
          </mxGeometry>
        </mxCell>
        <mxCell id="5Py8hqtLyM9Ob009en_i-42" value="Mail" style="shape=partialRectangle;connectable=0;fillColor=none;top=0;left=0;bottom=0;right=0;align=left;spacingLeft=6;overflow=hidden;whiteSpace=wrap;html=1;" parent="5Py8hqtLyM9Ob009en_i-40" vertex="1">
          <mxGeometry x="50" width="140" height="30" as="geometry">
            <mxRectangle width="140" height="30" as="alternateBounds" />
          </mxGeometry>
        </mxCell>
        <mxCell id="5Py8hqtLyM9Ob009en_i-43" value="" style="shape=tableRow;horizontal=0;startSize=0;swimlaneHead=0;swimlaneBody=0;fillColor=none;collapsible=0;dropTarget=0;points=[[0,0.5],[1,0.5]];portConstraint=eastwest;top=0;left=0;right=0;bottom=1;" parent="5Py8hqtLyM9Ob009en_i-27" vertex="1">
          <mxGeometry y="170" width="190" height="30" as="geometry" />
        </mxCell>
        <mxCell id="5Py8hqtLyM9Ob009en_i-44" value="PK, FK1" style="shape=partialRectangle;connectable=0;fillColor=none;top=0;left=0;bottom=0;right=0;fontStyle=1;overflow=hidden;whiteSpace=wrap;html=1;" parent="5Py8hqtLyM9Ob009en_i-43" vertex="1">
          <mxGeometry width="50" height="30" as="geometry">
            <mxRectangle width="50" height="30" as="alternateBounds" />
          </mxGeometry>
        </mxCell>
        <mxCell id="5Py8hqtLyM9Ob009en_i-45" value="CodArea" style="shape=partialRectangle;connectable=0;fillColor=none;top=0;left=0;bottom=0;right=0;align=left;spacingLeft=6;fontStyle=5;overflow=hidden;whiteSpace=wrap;html=1;" parent="5Py8hqtLyM9Ob009en_i-43" vertex="1">
          <mxGeometry x="50" width="140" height="30" as="geometry">
            <mxRectangle width="140" height="30" as="alternateBounds" />
          </mxGeometry>
        </mxCell>
        <mxCell id="5Py8hqtLyM9Ob009en_i-46" value="" style="shape=tableRow;horizontal=0;startSize=0;swimlaneHead=0;swimlaneBody=0;fillColor=none;collapsible=0;dropTarget=0;points=[[0,0.5],[1,0.5]];portConstraint=eastwest;top=0;left=0;right=0;bottom=1;" parent="5Py8hqtLyM9Ob009en_i-27" vertex="1">
          <mxGeometry y="200" width="190" height="30" as="geometry" />
        </mxCell>
        <mxCell id="5Py8hqtLyM9Ob009en_i-47" value="PK, FK2" style="shape=partialRectangle;connectable=0;fillColor=none;top=0;left=0;bottom=0;right=0;fontStyle=1;overflow=hidden;whiteSpace=wrap;html=1;" parent="5Py8hqtLyM9Ob009en_i-46" vertex="1">
          <mxGeometry width="50" height="30" as="geometry">
            <mxRectangle width="50" height="30" as="alternateBounds" />
          </mxGeometry>
        </mxCell>
        <mxCell id="5Py8hqtLyM9Ob009en_i-48" value="Numero" style="shape=partialRectangle;connectable=0;fillColor=none;top=0;left=0;bottom=0;right=0;align=left;spacingLeft=6;fontStyle=5;overflow=hidden;whiteSpace=wrap;html=1;" parent="5Py8hqtLyM9Ob009en_i-46" vertex="1">
          <mxGeometry x="50" width="140" height="30" as="geometry">
            <mxRectangle width="140" height="30" as="alternateBounds" />
          </mxGeometry>
        </mxCell>
        <mxCell id="5Py8hqtLyM9Ob009en_i-49" value="Telefono" style="shape=table;startSize=30;container=1;collapsible=1;childLayout=tableLayout;fixedRows=1;rowLines=0;fontStyle=1;align=center;resizeLast=1;html=1;whiteSpace=wrap;" parent="1" vertex="1">
          <mxGeometry x="-310" y="570" width="180" height="120" as="geometry" />
        </mxCell>
        <mxCell id="5Py8hqtLyM9Ob009en_i-50" value="" style="shape=tableRow;horizontal=0;startSize=0;swimlaneHead=0;swimlaneBody=0;fillColor=none;collapsible=0;dropTarget=0;points=[[0,0.5],[1,0.5]];portConstraint=eastwest;top=0;left=0;right=0;bottom=0;html=1;" parent="5Py8hqtLyM9Ob009en_i-49" vertex="1">
          <mxGeometry y="30" width="180" height="30" as="geometry" />
        </mxCell>
        <mxCell id="5Py8hqtLyM9Ob009en_i-51" value="PK,FK1" style="shape=partialRectangle;connectable=0;fillColor=none;top=0;left=0;bottom=0;right=0;fontStyle=1;overflow=hidden;html=1;whiteSpace=wrap;" parent="5Py8hqtLyM9Ob009en_i-50" vertex="1">
          <mxGeometry width="60.00000000000023" height="30" as="geometry">
            <mxRectangle width="60.00000000000023" height="30" as="alternateBounds" />
          </mxGeometry>
        </mxCell>
        <mxCell id="5Py8hqtLyM9Ob009en_i-52" value="CodArea" style="shape=partialRectangle;connectable=0;fillColor=none;top=0;left=0;bottom=0;right=0;align=left;spacingLeft=6;fontStyle=5;overflow=hidden;html=1;whiteSpace=wrap;" parent="5Py8hqtLyM9Ob009en_i-50" vertex="1">
          <mxGeometry x="60.00000000000023" width="119.99999999999977" height="30" as="geometry">
            <mxRectangle width="119.99999999999977" height="30" as="alternateBounds" />
          </mxGeometry>
        </mxCell>
        <mxCell id="5Py8hqtLyM9Ob009en_i-53" value="" style="shape=tableRow;horizontal=0;startSize=0;swimlaneHead=0;swimlaneBody=0;fillColor=none;collapsible=0;dropTarget=0;points=[[0,0.5],[1,0.5]];portConstraint=eastwest;top=0;left=0;right=0;bottom=1;html=1;" parent="5Py8hqtLyM9Ob009en_i-49" vertex="1">
          <mxGeometry y="60" width="180" height="30" as="geometry" />
        </mxCell>
        <mxCell id="5Py8hqtLyM9Ob009en_i-54" value="PK,FK2" style="shape=partialRectangle;connectable=0;fillColor=none;top=0;left=0;bottom=0;right=0;fontStyle=1;overflow=hidden;html=1;whiteSpace=wrap;" parent="5Py8hqtLyM9Ob009en_i-53" vertex="1">
          <mxGeometry width="60.00000000000023" height="30" as="geometry">
            <mxRectangle width="60.00000000000023" height="30" as="alternateBounds" />
          </mxGeometry>
        </mxCell>
        <mxCell id="5Py8hqtLyM9Ob009en_i-55" value="Numero" style="shape=partialRectangle;connectable=0;fillColor=none;top=0;left=0;bottom=0;right=0;align=left;spacingLeft=6;fontStyle=5;overflow=hidden;html=1;whiteSpace=wrap;" parent="5Py8hqtLyM9Ob009en_i-53" vertex="1">
          <mxGeometry x="60.00000000000023" width="119.99999999999977" height="30" as="geometry">
            <mxRectangle width="119.99999999999977" height="30" as="alternateBounds" />
          </mxGeometry>
        </mxCell>
        <mxCell id="OkP7HY-hwdMwA8xoaqil-1" value="" style="shape=tableRow;horizontal=0;startSize=0;swimlaneHead=0;swimlaneBody=0;fillColor=none;collapsible=0;dropTarget=0;points=[[0,0.5],[1,0.5]];portConstraint=eastwest;top=0;left=0;right=0;bottom=1;html=1;" vertex="1" parent="5Py8hqtLyM9Ob009en_i-49">
          <mxGeometry y="90" width="180" height="30" as="geometry" />
        </mxCell>
        <mxCell id="OkP7HY-hwdMwA8xoaqil-2" value="PK,FK11" style="shape=partialRectangle;connectable=0;fillColor=none;top=0;left=0;bottom=0;right=0;fontStyle=1;overflow=hidden;html=1;whiteSpace=wrap;" vertex="1" parent="OkP7HY-hwdMwA8xoaqil-1">
          <mxGeometry width="60.00000000000023" height="30" as="geometry">
            <mxRectangle width="60.00000000000023" height="30" as="alternateBounds" />
          </mxGeometry>
        </mxCell>
        <mxCell id="OkP7HY-hwdMwA8xoaqil-3" value="Dni" style="shape=partialRectangle;connectable=0;fillColor=none;top=0;left=0;bottom=0;right=0;align=left;spacingLeft=6;fontStyle=5;overflow=hidden;html=1;whiteSpace=wrap;" vertex="1" parent="OkP7HY-hwdMwA8xoaqil-1">
          <mxGeometry x="60.00000000000023" width="119.99999999999977" height="30" as="geometry">
            <mxRectangle width="119.99999999999977" height="30" as="alternateBounds" />
          </mxGeometry>
        </mxCell>
        <mxCell id="5Py8hqtLyM9Ob009en_i-56" value="Pais" style="shape=table;startSize=30;container=1;collapsible=1;childLayout=tableLayout;fixedRows=1;rowLines=0;fontStyle=1;align=center;resizeLast=1;html=1;" parent="1" vertex="1">
          <mxGeometry x="600" y="260" width="180" height="90" as="geometry" />
        </mxCell>
        <mxCell id="5Py8hqtLyM9Ob009en_i-57" value="" style="shape=tableRow;horizontal=0;startSize=0;swimlaneHead=0;swimlaneBody=0;fillColor=none;collapsible=0;dropTarget=0;points=[[0,0.5],[1,0.5]];portConstraint=eastwest;top=0;left=0;right=0;bottom=1;" parent="5Py8hqtLyM9Ob009en_i-56" vertex="1">
          <mxGeometry y="30" width="180" height="30" as="geometry" />
        </mxCell>
        <mxCell id="5Py8hqtLyM9Ob009en_i-58" value="PK" style="shape=partialRectangle;connectable=0;fillColor=none;top=0;left=0;bottom=0;right=0;fontStyle=1;overflow=hidden;whiteSpace=wrap;html=1;" parent="5Py8hqtLyM9Ob009en_i-57" vertex="1">
          <mxGeometry width="30" height="30" as="geometry">
            <mxRectangle width="30" height="30" as="alternateBounds" />
          </mxGeometry>
        </mxCell>
        <mxCell id="5Py8hqtLyM9Ob009en_i-59" value="CodPais" style="shape=partialRectangle;connectable=0;fillColor=none;top=0;left=0;bottom=0;right=0;align=left;spacingLeft=6;fontStyle=5;overflow=hidden;whiteSpace=wrap;html=1;" parent="5Py8hqtLyM9Ob009en_i-57" vertex="1">
          <mxGeometry x="30" width="150" height="30" as="geometry">
            <mxRectangle width="150" height="30" as="alternateBounds" />
          </mxGeometry>
        </mxCell>
        <mxCell id="5Py8hqtLyM9Ob009en_i-60" value="" style="shape=tableRow;horizontal=0;startSize=0;swimlaneHead=0;swimlaneBody=0;fillColor=none;collapsible=0;dropTarget=0;points=[[0,0.5],[1,0.5]];portConstraint=eastwest;top=0;left=0;right=0;bottom=0;" parent="5Py8hqtLyM9Ob009en_i-56" vertex="1">
          <mxGeometry y="60" width="180" height="30" as="geometry" />
        </mxCell>
        <mxCell id="5Py8hqtLyM9Ob009en_i-61" value="" style="shape=partialRectangle;connectable=0;fillColor=none;top=0;left=0;bottom=0;right=0;editable=1;overflow=hidden;whiteSpace=wrap;html=1;" parent="5Py8hqtLyM9Ob009en_i-60" vertex="1">
          <mxGeometry width="30" height="30" as="geometry">
            <mxRectangle width="30" height="30" as="alternateBounds" />
          </mxGeometry>
        </mxCell>
        <mxCell id="5Py8hqtLyM9Ob009en_i-62" value="Nombre" style="shape=partialRectangle;connectable=0;fillColor=none;top=0;left=0;bottom=0;right=0;align=left;spacingLeft=6;overflow=hidden;whiteSpace=wrap;html=1;" parent="5Py8hqtLyM9Ob009en_i-60" vertex="1">
          <mxGeometry x="30" width="150" height="30" as="geometry">
            <mxRectangle width="150" height="30" as="alternateBounds" />
          </mxGeometry>
        </mxCell>
        <mxCell id="5Py8hqtLyM9Ob009en_i-91" value="Ventas" style="shape=table;startSize=30;container=1;collapsible=1;childLayout=tableLayout;fixedRows=1;rowLines=0;fontStyle=1;align=center;resizeLast=1;html=1;" parent="1" vertex="1">
          <mxGeometry x="300" y="430" width="180" height="150" as="geometry" />
        </mxCell>
        <mxCell id="5Py8hqtLyM9Ob009en_i-92" value="" style="shape=tableRow;horizontal=0;startSize=0;swimlaneHead=0;swimlaneBody=0;fillColor=none;collapsible=0;dropTarget=0;points=[[0,0.5],[1,0.5]];portConstraint=eastwest;top=0;left=0;right=0;bottom=1;" parent="5Py8hqtLyM9Ob009en_i-91" vertex="1">
          <mxGeometry y="30" width="180" height="30" as="geometry" />
        </mxCell>
        <mxCell id="5Py8hqtLyM9Ob009en_i-93" value="PK" style="shape=partialRectangle;connectable=0;fillColor=none;top=0;left=0;bottom=0;right=0;fontStyle=1;overflow=hidden;whiteSpace=wrap;html=1;" parent="5Py8hqtLyM9Ob009en_i-92" vertex="1">
          <mxGeometry width="60" height="30" as="geometry">
            <mxRectangle width="60" height="30" as="alternateBounds" />
          </mxGeometry>
        </mxCell>
        <mxCell id="5Py8hqtLyM9Ob009en_i-94" value="IdVentas" style="shape=partialRectangle;connectable=0;fillColor=none;top=0;left=0;bottom=0;right=0;align=left;spacingLeft=6;fontStyle=5;overflow=hidden;whiteSpace=wrap;html=1;" parent="5Py8hqtLyM9Ob009en_i-92" vertex="1">
          <mxGeometry x="60" width="120" height="30" as="geometry">
            <mxRectangle width="120" height="30" as="alternateBounds" />
          </mxGeometry>
        </mxCell>
        <mxCell id="bBKxwZBvTZBD2i10vPzt-1" value="" style="shape=tableRow;horizontal=0;startSize=0;swimlaneHead=0;swimlaneBody=0;fillColor=none;collapsible=0;dropTarget=0;points=[[0,0.5],[1,0.5]];portConstraint=eastwest;top=0;left=0;right=0;bottom=1;" parent="5Py8hqtLyM9Ob009en_i-91" vertex="1">
          <mxGeometry y="60" width="180" height="30" as="geometry" />
        </mxCell>
        <mxCell id="bBKxwZBvTZBD2i10vPzt-2" value="PK, FK5" style="shape=partialRectangle;connectable=0;fillColor=none;top=0;left=0;bottom=0;right=0;fontStyle=1;overflow=hidden;whiteSpace=wrap;html=1;" parent="bBKxwZBvTZBD2i10vPzt-1" vertex="1">
          <mxGeometry width="60" height="30" as="geometry">
            <mxRectangle width="60" height="30" as="alternateBounds" />
          </mxGeometry>
        </mxCell>
        <mxCell id="bBKxwZBvTZBD2i10vPzt-3" value="&lt;br&gt;&lt;div&gt;IdDetalle&lt;/div&gt;&lt;div&gt;&lt;br&gt;&lt;/div&gt;" style="shape=partialRectangle;connectable=0;fillColor=none;top=0;left=0;bottom=0;right=0;align=left;spacingLeft=6;fontStyle=5;overflow=hidden;whiteSpace=wrap;html=1;" parent="bBKxwZBvTZBD2i10vPzt-1" vertex="1">
          <mxGeometry x="60" width="120" height="30" as="geometry">
            <mxRectangle width="120" height="30" as="alternateBounds" />
          </mxGeometry>
        </mxCell>
        <mxCell id="UIDI4pAyO_nTsByNzYpc-1" value="" style="shape=tableRow;horizontal=0;startSize=0;swimlaneHead=0;swimlaneBody=0;fillColor=none;collapsible=0;dropTarget=0;points=[[0,0.5],[1,0.5]];portConstraint=eastwest;top=0;left=0;right=0;bottom=1;" parent="5Py8hqtLyM9Ob009en_i-91" vertex="1">
          <mxGeometry y="90" width="180" height="30" as="geometry" />
        </mxCell>
        <mxCell id="UIDI4pAyO_nTsByNzYpc-2" value="PK,FK9" style="shape=partialRectangle;connectable=0;fillColor=none;top=0;left=0;bottom=0;right=0;fontStyle=1;overflow=hidden;whiteSpace=wrap;html=1;" parent="UIDI4pAyO_nTsByNzYpc-1" vertex="1">
          <mxGeometry width="60" height="30" as="geometry">
            <mxRectangle width="60" height="30" as="alternateBounds" />
          </mxGeometry>
        </mxCell>
        <mxCell id="UIDI4pAyO_nTsByNzYpc-3" value="IdProdcutos" style="shape=partialRectangle;connectable=0;fillColor=none;top=0;left=0;bottom=0;right=0;align=left;spacingLeft=6;fontStyle=5;overflow=hidden;whiteSpace=wrap;html=1;" parent="UIDI4pAyO_nTsByNzYpc-1" vertex="1">
          <mxGeometry x="60" width="120" height="30" as="geometry">
            <mxRectangle width="120" height="30" as="alternateBounds" />
          </mxGeometry>
        </mxCell>
        <mxCell id="C--lXVIFWas94rDARvo7-2" value="" style="shape=tableRow;horizontal=0;startSize=0;swimlaneHead=0;swimlaneBody=0;fillColor=none;collapsible=0;dropTarget=0;points=[[0,0.5],[1,0.5]];portConstraint=eastwest;top=0;left=0;right=0;bottom=1;" parent="5Py8hqtLyM9Ob009en_i-91" vertex="1">
          <mxGeometry y="120" width="180" height="30" as="geometry" />
        </mxCell>
        <mxCell id="C--lXVIFWas94rDARvo7-3" value="PK,FK10" style="shape=partialRectangle;connectable=0;fillColor=none;top=0;left=0;bottom=0;right=0;fontStyle=1;overflow=hidden;whiteSpace=wrap;html=1;" parent="C--lXVIFWas94rDARvo7-2" vertex="1">
          <mxGeometry width="60" height="30" as="geometry">
            <mxRectangle width="60" height="30" as="alternateBounds" />
          </mxGeometry>
        </mxCell>
        <mxCell id="C--lXVIFWas94rDARvo7-4" value="Dni" style="shape=partialRectangle;connectable=0;fillColor=none;top=0;left=0;bottom=0;right=0;align=left;spacingLeft=6;fontStyle=5;overflow=hidden;whiteSpace=wrap;html=1;" parent="C--lXVIFWas94rDARvo7-2" vertex="1">
          <mxGeometry x="60" width="120" height="30" as="geometry">
            <mxRectangle width="120" height="30" as="alternateBounds" />
          </mxGeometry>
        </mxCell>
        <mxCell id="9drAqMOV2XTRVNKgs17i-1" value="Detalles" style="shape=table;startSize=30;container=1;collapsible=1;childLayout=tableLayout;fixedRows=1;rowLines=0;fontStyle=1;align=center;resizeLast=1;html=1;" parent="1" vertex="1">
          <mxGeometry x="650" y="580" width="180" height="90" as="geometry" />
        </mxCell>
        <mxCell id="9drAqMOV2XTRVNKgs17i-2" value="" style="shape=tableRow;horizontal=0;startSize=0;swimlaneHead=0;swimlaneBody=0;fillColor=none;collapsible=0;dropTarget=0;points=[[0,0.5],[1,0.5]];portConstraint=eastwest;top=0;left=0;right=0;bottom=1;" parent="9drAqMOV2XTRVNKgs17i-1" vertex="1">
          <mxGeometry y="30" width="180" height="30" as="geometry" />
        </mxCell>
        <mxCell id="9drAqMOV2XTRVNKgs17i-3" value="PK" style="shape=partialRectangle;connectable=0;fillColor=none;top=0;left=0;bottom=0;right=0;fontStyle=1;overflow=hidden;whiteSpace=wrap;html=1;" parent="9drAqMOV2XTRVNKgs17i-2" vertex="1">
          <mxGeometry width="30" height="30" as="geometry">
            <mxRectangle width="30" height="30" as="alternateBounds" />
          </mxGeometry>
        </mxCell>
        <mxCell id="9drAqMOV2XTRVNKgs17i-4" value="IdDetalle" style="shape=partialRectangle;connectable=0;fillColor=none;top=0;left=0;bottom=0;right=0;align=left;spacingLeft=6;fontStyle=5;overflow=hidden;whiteSpace=wrap;html=1;" parent="9drAqMOV2XTRVNKgs17i-2" vertex="1">
          <mxGeometry x="30" width="150" height="30" as="geometry">
            <mxRectangle width="150" height="30" as="alternateBounds" />
          </mxGeometry>
        </mxCell>
        <mxCell id="9drAqMOV2XTRVNKgs17i-14" value="" style="shape=tableRow;horizontal=0;startSize=0;swimlaneHead=0;swimlaneBody=0;fillColor=none;collapsible=0;dropTarget=0;points=[[0,0.5],[1,0.5]];portConstraint=eastwest;top=0;left=0;right=0;bottom=1;" parent="9drAqMOV2XTRVNKgs17i-1" vertex="1">
          <mxGeometry y="60" width="180" height="30" as="geometry" />
        </mxCell>
        <mxCell id="9drAqMOV2XTRVNKgs17i-15" value="FK6" style="shape=partialRectangle;connectable=0;fillColor=none;top=0;left=0;bottom=0;right=0;fontStyle=1;overflow=hidden;whiteSpace=wrap;html=1;" parent="9drAqMOV2XTRVNKgs17i-14" vertex="1">
          <mxGeometry width="30" height="30" as="geometry">
            <mxRectangle width="30" height="30" as="alternateBounds" />
          </mxGeometry>
        </mxCell>
        <mxCell id="9drAqMOV2XTRVNKgs17i-16" value="IdVentas" style="shape=partialRectangle;connectable=0;fillColor=none;top=0;left=0;bottom=0;right=0;align=left;spacingLeft=6;fontStyle=5;overflow=hidden;whiteSpace=wrap;html=1;" parent="9drAqMOV2XTRVNKgs17i-14" vertex="1">
          <mxGeometry x="30" width="150" height="30" as="geometry">
            <mxRectangle width="150" height="30" as="alternateBounds" />
          </mxGeometry>
        </mxCell>
        <mxCell id="9drAqMOV2XTRVNKgs17i-17" value="Registros" style="shape=table;startSize=30;container=1;collapsible=1;childLayout=tableLayout;fixedRows=1;rowLines=0;fontStyle=1;align=center;resizeLast=1;html=1;" parent="1" vertex="1">
          <mxGeometry x="630" y="400" width="180" height="120" as="geometry" />
        </mxCell>
        <mxCell id="9drAqMOV2XTRVNKgs17i-18" value="" style="shape=tableRow;horizontal=0;startSize=0;swimlaneHead=0;swimlaneBody=0;fillColor=none;collapsible=0;dropTarget=0;points=[[0,0.5],[1,0.5]];portConstraint=eastwest;top=0;left=0;right=0;bottom=1;" parent="9drAqMOV2XTRVNKgs17i-17" vertex="1">
          <mxGeometry y="30" width="180" height="30" as="geometry" />
        </mxCell>
        <mxCell id="9drAqMOV2XTRVNKgs17i-19" value="PK" style="shape=partialRectangle;connectable=0;fillColor=none;top=0;left=0;bottom=0;right=0;fontStyle=1;overflow=hidden;whiteSpace=wrap;html=1;" parent="9drAqMOV2XTRVNKgs17i-18" vertex="1">
          <mxGeometry width="30" height="30" as="geometry">
            <mxRectangle width="30" height="30" as="alternateBounds" />
          </mxGeometry>
        </mxCell>
        <mxCell id="9drAqMOV2XTRVNKgs17i-20" value="IdRegistros" style="shape=partialRectangle;connectable=0;fillColor=none;top=0;left=0;bottom=0;right=0;align=left;spacingLeft=6;fontStyle=5;overflow=hidden;whiteSpace=wrap;html=1;" parent="9drAqMOV2XTRVNKgs17i-18" vertex="1">
          <mxGeometry x="30" width="150" height="30" as="geometry">
            <mxRectangle width="150" height="30" as="alternateBounds" />
          </mxGeometry>
        </mxCell>
        <mxCell id="9drAqMOV2XTRVNKgs17i-21" value="" style="shape=tableRow;horizontal=0;startSize=0;swimlaneHead=0;swimlaneBody=0;fillColor=none;collapsible=0;dropTarget=0;points=[[0,0.5],[1,0.5]];portConstraint=eastwest;top=0;left=0;right=0;bottom=1;" parent="9drAqMOV2XTRVNKgs17i-17" vertex="1">
          <mxGeometry y="60" width="180" height="30" as="geometry" />
        </mxCell>
        <mxCell id="9drAqMOV2XTRVNKgs17i-22" value="FK7" style="shape=partialRectangle;connectable=0;fillColor=none;top=0;left=0;bottom=0;right=0;fontStyle=1;overflow=hidden;whiteSpace=wrap;html=1;" parent="9drAqMOV2XTRVNKgs17i-21" vertex="1">
          <mxGeometry width="30" height="30" as="geometry">
            <mxRectangle width="30" height="30" as="alternateBounds" />
          </mxGeometry>
        </mxCell>
        <mxCell id="9drAqMOV2XTRVNKgs17i-23" value="IdVentas" style="shape=partialRectangle;connectable=0;fillColor=none;top=0;left=0;bottom=0;right=0;align=left;spacingLeft=6;fontStyle=5;overflow=hidden;whiteSpace=wrap;html=1;" parent="9drAqMOV2XTRVNKgs17i-21" vertex="1">
          <mxGeometry x="30" width="150" height="30" as="geometry">
            <mxRectangle width="150" height="30" as="alternateBounds" />
          </mxGeometry>
        </mxCell>
        <mxCell id="9drAqMOV2XTRVNKgs17i-24" value="" style="shape=tableRow;horizontal=0;startSize=0;swimlaneHead=0;swimlaneBody=0;fillColor=none;collapsible=0;dropTarget=0;points=[[0,0.5],[1,0.5]];portConstraint=eastwest;top=0;left=0;right=0;bottom=1;" parent="9drAqMOV2XTRVNKgs17i-17" vertex="1">
          <mxGeometry y="90" width="180" height="30" as="geometry" />
        </mxCell>
        <mxCell id="9drAqMOV2XTRVNKgs17i-25" value="FK8" style="shape=partialRectangle;connectable=0;fillColor=none;top=0;left=0;bottom=0;right=0;fontStyle=1;overflow=hidden;whiteSpace=wrap;html=1;" parent="9drAqMOV2XTRVNKgs17i-24" vertex="1">
          <mxGeometry width="30" height="30" as="geometry">
            <mxRectangle width="30" height="30" as="alternateBounds" />
          </mxGeometry>
        </mxCell>
        <mxCell id="9drAqMOV2XTRVNKgs17i-26" value="IdDetalle" style="shape=partialRectangle;connectable=0;fillColor=none;top=0;left=0;bottom=0;right=0;align=left;spacingLeft=6;fontStyle=5;overflow=hidden;whiteSpace=wrap;html=1;" parent="9drAqMOV2XTRVNKgs17i-24" vertex="1">
          <mxGeometry x="30" width="150" height="30" as="geometry">
            <mxRectangle width="150" height="30" as="alternateBounds" />
          </mxGeometry>
        </mxCell>
        <mxCell id="uyt04pldStlaAOkaUvpx-1" value="" style="edgeStyle=orthogonalEdgeStyle;fontSize=12;html=1;endArrow=ERoneToMany;startArrow=ERzeroToOne;rounded=0;exitX=0;exitY=0.5;exitDx=0;exitDy=0;entryX=0;entryY=0.5;entryDx=0;entryDy=0;" parent="1" source="UIDI4pAyO_nTsByNzYpc-1" target="5Py8hqtLyM9Ob009en_i-15" edge="1">
          <mxGeometry width="100" height="100" relative="1" as="geometry">
            <mxPoint x="180" y="640" as="sourcePoint" />
            <mxPoint x="280" y="540" as="targetPoint" />
          </mxGeometry>
        </mxCell>
        <mxCell id="C--lXVIFWas94rDARvo7-1" value="" style="edgeStyle=orthogonalEdgeStyle;fontSize=12;html=1;endArrow=ERmandOne;startArrow=ERmandOne;rounded=0;entryX=0;entryY=0.5;entryDx=0;entryDy=0;" parent="1" source="5Py8hqtLyM9Ob009en_i-28" target="C--lXVIFWas94rDARvo7-2" edge="1">
          <mxGeometry width="100" height="100" relative="1" as="geometry">
            <mxPoint x="170" y="500" as="sourcePoint" />
            <mxPoint x="180" y="570" as="targetPoint" />
          </mxGeometry>
        </mxCell>
        <mxCell id="iEao3cjCkXYBgkJhG3Tr-1" value="" style="edgeStyle=entityRelationEdgeStyle;fontSize=12;html=1;endArrow=ERmandOne;startArrow=ERmandOne;rounded=0;exitX=1;exitY=0.5;exitDx=0;exitDy=0;" parent="1" source="bBKxwZBvTZBD2i10vPzt-1" target="9drAqMOV2XTRVNKgs17i-14" edge="1">
          <mxGeometry width="100" height="100" relative="1" as="geometry">
            <mxPoint x="520" y="520" as="sourcePoint" />
            <mxPoint x="680" y="780" as="targetPoint" />
          </mxGeometry>
        </mxCell>
        <mxCell id="iEao3cjCkXYBgkJhG3Tr-2" value="" style="edgeStyle=entityRelationEdgeStyle;fontSize=12;html=1;endArrow=ERmandOne;startArrow=ERmandOne;rounded=0;entryX=0;entryY=0.5;entryDx=0;entryDy=0;" parent="1" source="5Py8hqtLyM9Ob009en_i-92" target="9drAqMOV2XTRVNKgs17i-21" edge="1">
          <mxGeometry width="100" height="100" relative="1" as="geometry">
            <mxPoint x="480" y="640" as="sourcePoint" />
            <mxPoint x="720" y="520" as="targetPoint" />
          </mxGeometry>
        </mxCell>
        <mxCell id="iEao3cjCkXYBgkJhG3Tr-3" value="" style="edgeStyle=orthogonalEdgeStyle;fontSize=12;html=1;endArrow=ERoneToMany;startArrow=ERmandOne;rounded=0;entryX=1;entryY=0.5;entryDx=0;entryDy=0;" parent="1" source="9drAqMOV2XTRVNKgs17i-24" target="9drAqMOV2XTRVNKgs17i-2" edge="1">
          <mxGeometry width="100" height="100" relative="1" as="geometry">
            <mxPoint x="550" y="770" as="sourcePoint" />
            <mxPoint x="650" y="670" as="targetPoint" />
          </mxGeometry>
        </mxCell>
        <mxCell id="ppRSkrYuXqKQdhu2V6Q1-2" value="" style="edgeStyle=entityRelationEdgeStyle;fontSize=12;html=1;endArrow=ERzeroToMany;startArrow=ERmandOne;rounded=0;entryX=1;entryY=0.5;entryDx=0;entryDy=0;exitX=0;exitY=0.5;exitDx=0;exitDy=0;" parent="1" source="5Py8hqtLyM9Ob009en_i-57" target="5Py8hqtLyM9Ob009en_i-66" edge="1">
          <mxGeometry width="100" height="100" relative="1" as="geometry">
            <mxPoint x="560" y="380" as="sourcePoint" />
            <mxPoint x="660" y="280" as="targetPoint" />
          </mxGeometry>
        </mxCell>
        <mxCell id="OkP7HY-hwdMwA8xoaqil-4" value="" style="edgeStyle=entityRelationEdgeStyle;fontSize=12;html=1;endArrow=ERoneToMany;startArrow=ERmandOne;rounded=0;entryX=1;entryY=0.5;entryDx=0;entryDy=0;exitX=0;exitY=0.5;exitDx=0;exitDy=0;" edge="1" parent="1" source="5Py8hqtLyM9Ob009en_i-28" target="OkP7HY-hwdMwA8xoaqil-1">
          <mxGeometry width="100" height="100" relative="1" as="geometry">
            <mxPoint x="-20" y="550" as="sourcePoint" />
            <mxPoint x="-10" y="500" as="targetPoint" />
          </mxGeometry>
        </mxCell>
      </root>
    </mxGraphModel>
  </diagram>
</mxfile>
